<?xml version="1.0" standalone="no"?>
<!DOCTYPE svg PUBLIC "-//W3C//DTD SVG 20010904//EN"
 "http://www.w3.org/TR/2001/REC-SVG-20010904/DTD/svg10.dtd">
<svg version="1.0" xmlns="http://www.w3.org/2000/svg"
 width="356.000000pt" height="360.000000pt" viewBox="0 0 356.000000 360.000000"
 preserveAspectRatio="xMidYMid meet">
<metadata>
Created by potrace 1.15, written by Peter Selinger 2001-2017
</metadata>
<g transform="translate(0.000000,360.000000) scale(0.100000,-0.100000)"
fill="#000000" stroke="none">
<path d="M1220 3384 c-19 -2 -78 -9 -130 -15 -142 -16 -226 -37 -260 -66 -16
-13 -58 -38 -92 -55 -72 -34 -94 -52 -114 -89 -7 -15 -45 -181 -83 -369 -38
-188 -77 -352 -85 -365 -9 -14 -40 -40 -69 -59 -28 -18 -70 -53 -92 -76 -38
-41 -38 -42 -8 -21 18 12 58 34 90 49 50 23 71 27 153 27 82 0 103 -4 152 -27
62 -29 142 -96 163 -139 13 -23 12 -28 -3 -42 -16 -15 -21 -13 -65 34 -70 75
-140 104 -247 104 -73 0 -93 -4 -142 -28 -65 -32 -121 -89 -152 -156 -31 -68
-30 -207 3 -274 25 -50 67 -100 111 -129 24 -17 24 -17 -11 -3 -72 28 -133 66
-151 93 -27 41 -49 123 -57 220 l-8 87 -1 -95 c-2 -113 9 -163 51 -250 59
-121 182 -219 318 -255 69 -19 199 -19 268 0 224 59 372 251 373 485 2 152
-46 267 -153 373 l-69 67 0 414 0 414 48 10 c188 40 606 41 787 2 222 -47 396
-109 586 -206 420 -215 699 -539 801 -931 26 -101 31 -145 37 -298 7 -160 8
-169 11 -80 2 55 3 131 1 168 -1 42 2 67 7 63 38 -23 49 -302 18 -459 -57
-293 -223 -567 -470 -775 -357 -299 -886 -492 -1350 -492 -226 0 -460 31 -631
85 -46 14 -105 25 -137 25 -58 0 -58 0 -58 -31 0 -27 6 -33 53 -54 355 -156
950 -199 1387 -99 527 120 980 408 1231 783 114 169 177 316 221 511 20 91 23
132 23 305 0 219 -11 293 -66 460 -151 452 -544 830 -1088 1045 -57 23 -105
39 -107 37 -2 -2 29 -16 68 -32 100 -38 272 -125 360 -181 89 -57 151 -105
144 -111 -3 -3 -68 29 -145 70 -302 163 -545 250 -861 308 -101 19 -466 34
-560 23z m-684 -1150 c52 -18 87 -42 79 -55 -3 -4 -40 -26 -83 -49 -96 -52
-117 -71 -139 -128 -13 -36 -25 -48 -57 -63 l-41 -19 -27 33 c-39 45 -42 66
-19 117 34 76 73 121 131 151 63 33 87 35 156 13z m236 -291 c25 -23 23 -82
-5 -124 -55 -82 -159 -126 -274 -117 -65 6 -93 28 -93 75 0 78 40 112 132 113
37 0 70 5 73 10 3 6 14 10 25 10 10 0 38 11 61 25 52 29 57 30 81 8z"/>
<path d="M1150 3157 c0 -17 15 -34 54 -61 77 -53 201 -186 268 -287 104 -156
227 -444 244 -574 4 -25 10 -41 14 -35 11 18 -15 141 -56 265 -34 101 -174
392 -237 493 -16 24 -35 42 -45 42 -10 0 -42 25 -71 56 -44 47 -147 124 -166
124 -3 0 -5 -11 -5 -23z"/>
<path d="M1108 3114 c23 -16 42 -34 42 -41 0 -16 -8 -16 -49 -2 -17 6 -42 8
-56 5 l-25 -6 -2 -303 c-3 -277 -4 -302 -20 -305 -17 -3 -18 20 -21 335 l-2
338 -3 -382 -2 -383 33 -27 c68 -57 177 -174 217 -234 103 -150 156 -311 169
-504 l8 -120 2 115 c1 109 2 113 19 97 25 -26 30 -236 7 -349 -36 -180 -104
-340 -214 -505 -53 -79 -67 -93 -110 -112 -27 -11 -54 -21 -59 -21 -14 0 -22
-41 -12 -60 21 -39 372 -59 480 -27 122 36 170 155 123 304 l-17 53 34 35 c38
40 44 83 15 115 -18 20 -18 21 2 35 11 8 26 27 32 44 11 25 10 36 -8 76 -12
26 -21 60 -21 76 0 32 24 49 99 69 61 16 101 58 101 105 0 45 -7 59 -133 252
-103 156 -147 232 -147 253 0 5 15 30 34 55 45 59 50 87 31 181 -77 374 -357
801 -565 859 -17 5 -12 -2 18 -21z"/>
<path d="M2020 3068 c312 -145 412 -209 576 -372 231 -231 336 -472 320 -736
-24 -392 -194 -705 -503 -927 -150 -107 -362 -210 -536 -259 -50 -14 -110 -38
-132 -52 -22 -15 -48 -30 -58 -34 -12 -5 -17 -16 -15 -30 5 -34 54 -34 189 1
483 125 879 427 1029 787 77 186 110 438 80 621 -56 351 -270 639 -641 861
-83 50 -259 133 -309 146 l-25 6 25 -12z"/>
<path d="M1653 2006 c4 -26 41 -90 116 -200 60 -89 125 -191 145 -227 30 -53
36 -59 36 -37 0 40 -53 134 -185 328 -102 151 -117 170 -112 136z"/>
</g>
</svg>
